# xmcd CD database file
#
# Track frame offsets:
#	150
#	17741
#	32144
#	46641
#
# Disc length: 858 seconds
#
# Revision: 1
# Processed by: cddbd v1.4PL0 Copyright (c) Steve Scherf et al.
# Submitted via: CDex 1.40Release
#
DISCID=24035804
DTITLE=Heidi Jo - Heidi Jo
DYEAR=2002
DGENRE=Country
TTITLE0=Black Water Bayou
TTITLE1=Half Of Who You Are
TTITLE2=Stay For A While
TTITLE3=Eighth Wonder
EXTD=YEAR: 2002 ID3G: 2
EXTT0=
EXTT1=
EXTT2=
EXTT3=
PLAYORDER=
